<?xml version="1.0" encoding="utf-8"?>
<!-- Generator: Adobe Illustrator 28.0.0, SVG Export Plug-In . SVG Version: 6.00 Build 0)  -->
<svg version="1.1" id="Layer_1" xmlns="http://www.w3.org/2000/svg" xmlns:xlink="http://www.w3.org/1999/xlink" x="0px" y="0px"
	 viewBox="0 0 1080 1080" style="enable-background:new 0 0 1080 1080;" xml:space="preserve">
<style type="text/css">
	.st0{display:none;fill:#FFFFFF;}
	.st1{fill:#202844;}
	.st2{fill:#F16A22;}
</style>
<g id="_x31_e06107f-5e8c-49d2-a280-6bb619d9a40d" transform="matrix(1 0 0 1 540 540)">
	<rect x="-540" y="-540" vector-effect="non-scaling-stroke" class="st0" width="1080" height="1080"/>
</g>
<g id="_x30_d659e1c-5b56-4847-a569-5968437c484c" transform="matrix(1 0 0 1 540 540)">
</g>
<g transform="matrix(1.09 0 0 1.09 540 540)">
	<g>
		<g transform="matrix(1 0 0 1 -440.2 20.85)">
			<path vector-effect="non-scaling-stroke" class="st1" d="M-53.8-93.4c0-1.7,1.4-3.1,3.1-3.1H4.2c14.9,0,26.2,3.8,33.8,11.5
				c5.8,5.8,8.7,12.9,8.7,21.4v0.4c0,3.8-0.5,7.3-1.6,10.3c-1,3.1-2.4,5.8-4.1,8c-1.7,2.3-3.6,4.3-5.8,6c-0.6,0.5-1.2,0.9-1.8,1.3
				c-2,1.4-1.8,4.3,0.4,5.3c5.1,2.3,9.4,5.3,12.9,8.9c4.7,4.8,7.1,11.6,7.1,20.3v0.4c0,5.8-1.1,10.9-3.4,15.3
				c-2.3,4.4-5.5,8.1-9.7,11.1s-9.2,5.2-15.1,6.7c-5.8,1.5-12.4,2.3-19.7,2.3h-56.6c-1.7,0-3.1-1.4-3.1-3.1V-93.4z M-0.4-42
				c7.4,0,13.3-1.4,17.7-4.3c4.4-2.9,6.6-7.3,6.6-13.1v-0.4c0-5.1-1.9-9.2-5.8-12c-3.9-2.9-9.5-4.3-16.9-4.3h-29.6
				c-1.7,0-3.1,1.4-3.1,3.1v28c0,1.7,1.4,3.1,3.1,3.1L-0.4-42L-0.4-42z M6.2,12.5c7.8,0,13.9-1.5,18.3-4.4c4.4-2.9,6.6-7.3,6.6-13.2
				v-0.4c0-5.5-2.2-9.8-6.6-12.8c-4.4-3-11.1-4.5-20-4.5h-32.9c-1.7,0-3.1,1.4-3.1,3.1V9.4c0,1.7,1.4,3.1,3.1,3.1H6.2z"/>
		</g>
		<g transform="matrix(1 0 0 1 -262.4 20.35)">
			<path vector-effect="non-scaling-stroke" class="st1" d="M-8.1-97.1H8.1c1.9,0,3.4,1.5,3.4,3.4V29.9c0,1.9-1.5,3.4-3.4,3.4H-8.1
				c-1.9,0-3.4-1.5-3.4-3.4V-93.6C-11.6-95.5-10-97.1-8.1-97.1z"/>
		</g>
		<g transform="matrix(1 0 0 1 -222.1 20.35)">
			<path vector-effect="non-scaling-stroke" class="st1" d="M-8.1-97.1H8.1c1.9,0,3.4,1.5,3.4,3.4V29.9c0,1.9-1.5,3.4-3.4,3.4H-8.1
				c-1.9,0-3.4-1.5-3.4-3.4V-93.6C-11.5-95.5-10-97.1-8.1-97.1z"/>
		</g>
		<g transform="matrix(1 0 0 1 -150.55 20.35)">
			<path vector-effect="non-scaling-stroke" class="st1" d="M-42.7-97.1h11.1c6.4,0,11.6,5.2,11.6,11.6V-49
				c2.3-2.6,5.8-5.1,10.3-7.6s10.3-3.7,17.3-3.7c5.6,0,10.6,0.9,15.1,2.7c4.4,1.8,8.1,4.4,11,7.7c2.9,3.3,5.2,7.3,6.7,12
				c1.6,4.7,2.3,9.8,2.3,15.4v52.6c0,1.7-1.4,3.2-3.2,3.2H22.8c-1.7,0-3.2-1.4-3.2-3.2v-52.4c0-5.9-1.6-10.4-4.8-13.6
				c-3.2-3.2-7.3-4.8-12.4-4.8c-3.1,0-6.1,0.6-8.8,1.9c-2.7,1.2-5.1,3-7,5.2c-2,2.2-3.5,4.8-4.6,7.7c-1.1,2.9-1.7,6.1-1.7,9.5v46.5
				c0,1.7-1.4,3.2-3.2,3.2h-16.7c-1.7,0-3.2-1.4-3.2-3.2V-81.2L-42.7-97.1L-42.7-97.1z"/>
		</g>
		<g transform="matrix(1 0 0 1 123.05 38.85)">
			<path vector-effect="non-scaling-stroke" class="st1" d="M-38.8-76.9h14.5c2.1,0,3.8,1.6,3.9,3.7l0.4,6.7
				c1.2-1.3,2.6-2.7,4.2-4.1c1.6-1.4,3.6-2.8,5.9-4c2.3-1.2,4.9-2.2,7.7-3c2.9-0.8,6.1-1.2,9.8-1.2c11.5,0,20.2,3.4,26.2,10.3
				c6,6.8,9,16.1,9,27.7v51.6c0,2.3-1.8,4.1-4.1,4.1H23.8c-2.3,0-4.1-1.8-4.1-4.1v-51.4c0-5.9-1.6-10.4-4.8-13.6
				C11.7-57.4,7.5-59,2.5-59c-3.1,0-6.1,0.6-8.8,1.9c-2.7,1.2-5.1,3-7,5.2c-2,2.2-3.5,4.8-4.6,7.7c-1.1,2.9-1.7,6.1-1.7,9.5v45.6
				c0,2.3-1.8,4.1-4.1,4.1h-14.9c-2.3,0-4.1-1.8-4.1-4.1v-83.7C-42.7-75.1-41-76.9-38.8-76.9z"/>
		</g>
		<g transform="matrix(1 0 0 1 175.9 0)">
			<path vector-effect="non-scaling-stroke" class="st1" d="M5.7-32c0,1-0.3,2-0.8,2.9c-0.5,0.9-1.2,1.6-2.1,2.1
				C1.9-26.5,1-26.2,0-26.2s-2-0.3-2.8-0.8c-0.9-0.5-1.6-1.2-2.1-2.1c-0.5-0.9-0.8-1.8-0.8-2.8c0-1,0.3-2,0.8-2.9
				c0.5-0.9,1.2-1.6,2.1-2.1c0.9-0.5,1.8-0.8,2.8-0.8s2,0.3,2.8,0.8c0.9,0.5,1.6,1.2,2.1,2.1C5.5-33.9,5.7-33,5.7-32z M5-32
				c0-0.9-0.2-1.7-0.7-2.4c-0.4-0.8-1-1.4-1.8-1.8c-0.8-0.4-1.6-0.7-2.4-0.7c-0.9,0-1.7,0.2-2.5,0.7c-0.8,0.4-1.4,1-1.8,1.8
				c-0.4,0.8-0.7,1.6-0.7,2.5c0,0.9,0.2,1.7,0.7,2.4c0.4,0.8,1,1.4,1.8,1.8c0.8,0.4,1.6,0.7,2.5,0.7s1.7-0.2,2.4-0.7
				c0.8-0.4,1.4-1,1.8-1.8C4.7-30.3,5-31.1,5-32z M-2.3-35.3h2.7c0.6,0,1.1,0.1,1.4,0.2c0.3,0.1,0.5,0.3,0.7,0.6
				c0.2,0.3,0.3,0.6,0.3,1c0,0.3-0.1,0.6-0.2,0.9C2.5-32.4,2.3-32.2,2-32c0.3,0.1,0.5,0.3,0.6,0.5c0.1,0.2,0.2,0.5,0.2,1v0.7
				c0,0.3,0.1,0.6,0.2,0.9l0.1,0.2H1.9c-0.1-0.3-0.1-0.6-0.2-1l-0.1-0.8c0-0.3-0.1-0.5-0.1-0.6c-0.1-0.1-0.2-0.2-0.3-0.3
				c-0.1-0.1-0.4-0.1-0.8-0.1h-1.7v2.7h-1V-35.3z M-1.3-34.3v1.9h1.6c0.5,0,0.8-0.1,1-0.2c0.3-0.2,0.4-0.4,0.4-0.8
				c0-0.3-0.1-0.6-0.3-0.7c-0.2-0.2-0.5-0.2-1-0.2H-1.3z"/>
		</g>
		<g transform="matrix(1 0 0 1 39.47 38.6)">
			<path vector-effect="non-scaling-stroke" class="st1" d="M-26.6-76.9h14.4c2.1,0,3.8,1.6,3.9,3.7l0.4,7.8c1-1.3,2.4-2.7,4-4.3
				c1.6-1.6,3.6-3,5.8-4.3c2.2-1.3,4.8-2.4,7.7-3.3c2.9-0.9,6.3-1.4,10.1-1.4c2.2,0,4.2,0.1,6,0.4c0.8,0.1,1.5,0.3,2.3,0.4
				c1.7,0.4,2.8,2.1,2.5,3.9l-3.3,15.2c-0.4,1.8-2.2,2.9-4,2.5c-0.5-0.1-1-0.2-1.6-0.3C20-56.9,18-57,15.8-57c-3.1,0-6.1,0.5-9,1.6
				c-2.9,1-5.3,2.5-7.4,4.5c-2.1,2-3.7,4.3-5,7c-1.2,2.7-1.9,5.8-1.9,9.2v45.6c0,2.1-1.7,3.9-3.9,3.9h-15.3c-2.1,0-3.9-1.7-3.9-3.9
				V-73C-30.6-75.2-28.8-76.9-26.6-76.9z"/>
		</g>
		<g id="u_1_" transform="matrix(1 0 0 1 -334.25 40.2)">
			<path vector-effect="non-scaling-stroke" class="st1" d="M25.2-76.8c-2,0-3.6,1.6-3.6,3.6v44.6c0,12.2-8.7,20.4-19.4,20.4
				c-2,0-3.4,0-4.2,0c-10.6,0-19.4-8.2-19.4-20.4v-44.6c0-2-1.6-3.6-3.6-3.6h-14.2c-2,0-3.6,1.6-3.6,3.6v49.5
				c0,21.5,19.7,36.4,40.5,36.6l0,0h0.1c0.1,0,0.2,0,0.2,0l0,0h3.8l0,0c0.1,0,0.2,0,0.3,0h0.5l0,0c20.7-0.4,40.1-15.2,40.1-36.6
				v-49.5c0-2-1.6-3.6-3.6-3.6H25.2z"/>
		</g>
		<g transform="matrix(1 0 0 1 -49.2 40.15)">
			<path vector-effect="non-scaling-stroke" class="st1" d="M-49.2-32c0-6.6,1.2-12.9,3.6-18.9c2.4-5.9,5.8-11.1,10.1-15.5
				c4.3-4.4,9.5-8,15.5-10.6c6.1-2.6,12.7-3.9,20-3.9c7.3,0,14,1.3,20,3.9c6.1,2.6,11.2,6.1,15.5,10.6c4.3,4.4,7.7,9.6,10.1,15.5
				s3.6,12.2,3.6,18.9c0,6.7-1.2,12.9-3.6,18.9C43.2-7.2,39.8-2,35.5,2.5C31.2,7,26,10.6,20,13.2c-6.1,2.6-12.7,3.9-20,3.9
				c-7.3,0-14-1.3-20-3.9C-26.1,10.6-31.2,7-35.5,2.5c-4.3-4.5-7.7-9.7-10.1-15.6C-48-19.1-49.2-25.4-49.2-32z M0.1-2.9
				c4.4,0,8.3-0.9,11.5-2.6c3.3-1.8,6-4.1,8.1-6.9c2.2-2.9,3.7-6,4.8-9.4c1-3.4,1.6-6.8,1.6-10.2c0-3.3-0.5-6.6-1.6-10.1
				c-1-3.5-2.6-6.6-4.8-9.4c-2.2-2.8-4.9-5.1-8.1-6.8c-3.3-1.8-7.1-2.6-11.5-2.6s-8.3,0.9-11.5,2.6c-3.3,1.8-6,4-8.1,6.8
				c-2.2,2.8-3.7,5.9-4.8,9.4c-1,3.5-1.6,6.8-1.6,10.1c0,3.4,0.5,6.8,1.6,10.2c1,3.4,2.6,6.5,4.8,9.4c2.2,2.9,4.9,5.2,8.1,6.9
				C-8.2-3.8-4.3-2.9,0.1-2.9z"/>
		</g>
		<g transform="matrix(1 0 0 1 373.18 92.99)">
			<path vector-effect="non-scaling-stroke" class="st2" d="M25.4-25c-3.4-4.2-7.4-8.1-8.3-14.6c-0.6-4.2-3.9-7.3-6.3-10.6
				c-1.5-2.1-1.7-3-5.5-8.8c-0.2-0.3-1.1-1.8-1.2-2.1c-0.7-1.7-2.3-2.8-4.1-3c-12.2-1.3-33.6-5.1-42.8-8.9c-1-0.4,3.4,4.9,3.9,5.9
				c0.2,0.5,0.6,0.9,0.8,1.3c6.1,9.2,14.4,14.6,21.4,17.5c3.1,1.3,6.3,2.4,9.4,3.6c4.7,1.9,8.4,5.1,10.5,10.3
				c0.9,2.3,2.6,4.2,4.6,5.4c3.3,2,5.4,5.3,6.4,9c0.1,0.4,0.3,0.7,0.4,1.1C26.4,2,20.3-2.6,23.2,5.4c0,0.1,0,0.2,0.1,0.2
				c0.5,2.6,1.7,2.6,3.3,3.1c2.1,0.6,4,0.5,5.9-0.1c0.5-0.2,0.9-0.7,0.9-1.4c-0.1-1-0.1-1.9,0.5-2.2c0.7-0.3,1.3-0.1,1.8,0.2
				c1,1.7,1.7,0.6,2.7,0.2c2.2-1.3,4.5-1.1,4.5-4c0-1.1-5.5-13.6-9-17.8C31.4-19.6,28-21.9,25.4-25z"/>
		</g>
		<g transform="matrix(1 0 0 1 335.25 -6.51)">
			<path vector-effect="non-scaling-stroke" class="st2" d="M158-4.5c-0.2-0.3-0.8-0.6-0.7-1.3c0.2-2.2-1-1.5-1.8-1
				c-2.9,1.9-6.6,2.6-7.5,7.4c-0.2,1.1-1.2,1.4-2,1.9c-7.5,4.4-15.7-0.8-17.7-11.6c-1-5.6-2.4-11-4.6-16.1c-1.2-2.7-4.7-6.4-6.4-9.2
				c-0.3-0.5-0.4-1-0.5-1.6c-0.1-3-1.3-9.7-9.4-14.4c-0.1,0-0.1-0.1-0.2-0.1c-9.8-7.1-31-14.5-42.3-18c-4.3-1.2-5.5,1.6-5.6,3.4
				c0,0.3,0,0.7,0.1,1c0.2,0.8,0.7,2.4,0.7,2.5c2.7,10.3,6.1,24.5,4.2,23.9c-2.1-0.6-7.4-30.3-19.8-38.8c-0.1-0.1-0.2-0.1-0.2-0.2
				c-8.1-7.5-24.9-11-30.6-12.2c-0.7-0.2-1.4-0.6-1.9-1.2c-3.3-4.4-8.5-5.8-16.6-7.1c-3.4-0.5-6.2-1-8.7-1.3c-2-0.2-3.3-2.3-2.7-4.2
				l0,0c0.3-0.8,0.3-2.4-0.3-2.7c-0.6-0.2-2.5,0.6-4.1,0.8c-1.1,0.1-2.3-0.6-2.4-0.6c-0.4-0.2,0.6,0.6,0.1,0.2
				c-4.7-4.4,7-8.5,4.4-8.7c-0.9-0.1-1.8-0.1-2.6-0.1c-3.5-0.1-6.8,0.2-9.6,0.6c-0.7,0.1-1.2-0.6-1.1-1.2c0-0.3,0.2-0.6,0.5-0.7
				c15.3-8.3,21.1-17.8,21.1-17.8s4.7-7.6-6.2-12.6c-2.1-1-4.7-1.8-8-2.5c-9.4-2-17.8-5.1-24.3-7.9c-2.3-1-4.3-2-6.1-2.8
				c-0.1,0-0.5-0.2-0.9-0.4c-1-0.4-1.9-0.1-2.4,1.2c-0.9,2.1,2,3.2,3.5,4.3c6.4,5,13.7,8.2,20.4,12.5c4.2,2.7,4.3,3.9,0.5,6.6
				c-5.6,3.8-11.9,6.2-18.3,8.6c-0.3,0.1-0.7,0.2-1,0.2c-3.4-2.2-6.7-2.7-9.8-2.1c-5.6,0.2-10.8,3.3-13.6,8.6
				c-0.6,1.1-1.8,1.7-3,1.6c-0.2,0-0.5,0-0.7,0c-0.4-0.1-0.9-0.1-1.2-0.1c-13.7,1.1-16.4,6.7-17,9.1c-0.2,0.7-0.6,1.3-1.3,1.6
				c-29.5,12.4-50.3,3.1-57.2-1c0,0-0.1-0.1-0.2-0.1c-0.9-0.5-1.9,0.3-1.6,1.3c6.6,16.7,40.4,18,49.8,18c0.4,0,0.8,0,1.1,0
				c0.7,0,1.3,0.7,1,1.4c-2.4,7-5.3,11.5-7.1,14c-0.9,1.2-1.6,2.6-2.1,4.1l-0.2,0.6c-0.8,2.6-0.8,5.3,0.1,7.9l0,0
				c0.2,0.6,0.2,1.3,0.1,1.9c-0.1,0.4-0.2,0.6-0.2,0.9c0,0-0.1,0.6,0,1.4c1.8,10.8,7.7,13.1,7.7,13.1s1,0.6,4.9,0.4
				c9.2-0.4,24.7-2.6,28.5-2.9c0.4,0,0.8,0,1.2,0.1l0.2,0.1c0.3,0.1,0.6,0.2,0.8,0.3c13.3,6.9,33.1,28.4,40.2,40.8
				c0.4,0.8,0.8,1.5,1.2,2.2c3.3,6.4,6.9,11.1,12.6,15.3c0.6,0.5,2.4,1.8,5.4,3.5c3.7,2.1,6.7,3.3,9.1,4.3c6.5,2.6,11.8,4,15.7,4.9
				c1.7,0.4,2.8,0.7,3.5,0.8c3,0.6,5.7,1,9.2,1.5c12.9,1.7,18.8,1,21.2,5.1c0.2,0.2,0.6,1.8,0.8,2.3c0,0.1,0,0.1,0.1,0.2
				c3.2,9.2,5.2,10.3,6.6,14.5c0.7,2,1.7,3.1,3.5,3.6c2.8,0.8,5.4,2.4,6.5,5.5c2.7,7.1,7.8,12.6,14.4,14.5c7.3,2,10.7,1.4,15.1-4.7
				c1.6-2.3,1.7-4.4,0.4-6.8c-2.6-4.6-6.5-6.9-11.3-7.5c-2.3-0.3-4.5-1.4-4.8-3.8c-0.5-3.9-2.5-6.2-4.9-8.6
				c-2.3-2.4-1.8-5.7,0.8-7.3c0.7-0.4,8.5-6.6,11.7-8.2c1.1-0.6,7.9-2.9,8.1-7.7C91.3,7.6,93.2-0.5,94-0.4c0.5,0-0.4,3.8,1.1,10.8
				c0.1,0.4,0.2,0.7,0.3,1l0,0c1.4,8.2,11.1,21,15.9,26.4c0.2,0.3,0.4,0.6,0.5,0.9c1,2.5,2.2,4.9,3.8,7.1c0.6,0.9,1.3,2.5,1.5,3.5
				c1.5,9.1,5.9,17.1,6.8,26.4c0.3,3.5,1.1,7.8,0.7,9.4c-0.1,0.4-0.2,0.7-0.2,1.1c0.2,2.5,1,8.1,2,8.5c1,0.5,5.8,1.5,7.9-0.9
				c0.2-0.2,0.3-0.5,0.3-0.7c0.4-4,2-2.3,2.9-1.2c0.3,0.3,0.7,0.4,1,0.3c2-0.7,2.9-1.6,4.1-3c0.1-0.2,0.3-0.4,0.3-0.6
				c0.6-3.4,0.8-6.8-0.8-10c-1.4-2.8-3.1-5.4-5-7.8c-4.5-5.8-7-12.5-5.2-20.7c0.8-3.6,0-6.9-2-9.7c-1.4-1.9-1.6-3.7-1-6.3
				c1.5-7.8,2-15.8,1.2-23.8c-0.1-1.2-0.8-2.6,0.3-3.5c1-0.9,2.1-0.1,3.1,0.4c4.8,2.4,9.4,1.7,13.9-1.2c1-0.7,2-1.3,3.3-1.3
				c5.2,0,7.6-3.4,7.9-5.6C158.8-1.6,158.8-3.4,158-4.5z"/>
		</g>
	</g>
</g>
</svg>
