<?xml version="1.0" encoding="utf-8"?>
<!-- Generator: Adobe Illustrator 28.0.0, SVG Export Plug-In . SVG Version: 6.00 Build 0)  -->
<svg version="1.1" id="Layer_1" xmlns="http://www.w3.org/2000/svg" xmlns:xlink="http://www.w3.org/1999/xlink" x="0px" y="0px"
	 viewBox="0 0 950.4 146.1" style="enable-background:new 0 0 950.4 146.1;" xml:space="preserve">
<style type="text/css">
	.st0{display:none;fill:#FFFFFF;}
	.st1{fill:#202844;}
	.st2{fill:#F16A22;}
</style>
<g id="_x31_e06107f-5e8c-49d2-a280-6bb619d9a40d" transform="matrix(1 0 0 1 540 540)">
	<rect x="-540" y="-996.3" vector-effect="non-scaling-stroke" class="st0" width="1080" height="1080"/>
</g>
<g transform="matrix(1 0 0 1 -440.2 20.85)">
	<path vector-effect="non-scaling-stroke" class="st1" d="M441.7-16.3c0-1.9,1.5-3.4,3.4-3.4H505c16.2,0,28.6,4.1,36.8,12.5
		c6.3,6.3,9.5,14.1,9.5,23.3v0.4c0,4.1-0.5,8-1.7,11.2c-1.1,3.4-2.6,6.3-4.5,8.7c-1.9,2.5-3.9,4.7-6.3,6.5c-0.7,0.5-1.3,1-2,1.4
		c-2.2,1.5-2,4.7,0.4,5.8c5.6,2.5,10.2,5.8,14.1,9.7c5.1,5.2,7.7,12.6,7.7,22.1v0.4c0,6.3-1.2,11.9-3.7,16.7
		c-2.5,4.8-6,8.8-10.6,12.1c-4.6,3.3-10,5.7-16.5,7.3c-6.3,1.6-13.5,2.5-21.5,2.5h-61.7c-1.9,0-3.4-1.5-3.4-3.4
		C441.7,117.8,441.7-16.3,441.7-16.3z M499.9,39.8c8.1,0,14.5-1.5,19.3-4.7c4.8-3.2,7.2-8,7.2-14.3v-0.4c0-5.6-2.1-10-6.3-13.1
		c-4.3-3.2-10.4-4.7-18.4-4.7h-32.3c-1.9,0-3.4,1.5-3.4,3.4v30.5c0,1.9,1.5,3.4,3.4,3.4L499.9,39.8L499.9,39.8z M507.1,99.2
		c8.5,0,15.2-1.6,19.9-4.8s7.2-8,7.2-14.4v-0.4c0-6-2.4-10.7-7.2-14c-4.8-3.3-12.1-4.9-21.8-4.9h-35.9c-1.9,0-3.4,1.5-3.4,3.4v31.7
		c0,1.9,1.5,3.4,3.4,3.4L507.1,99.2L507.1,99.2z"/>
</g>
<g transform="matrix(1 0 0 1 -262.4 20.35)">
	<path vector-effect="non-scaling-stroke" class="st1" d="M507.6-20.4h17.7c2.1,0,3.7,1.6,3.7,3.7v134.7c0,2.1-1.6,3.7-3.7,3.7
		h-17.7c-2.1,0-3.7-1.6-3.7-3.7V-16.5C503.7-18.6,505.5-20.4,507.6-20.4z"/>
</g>
<g transform="matrix(1 0 0 1 -222.1 20.35)">
	<path vector-effect="non-scaling-stroke" class="st1" d="M511.2-20.4h17.7c2.1,0,3.7,1.6,3.7,3.7v134.7c0,2.1-1.6,3.7-3.7,3.7
		h-17.7c-2.1,0-3.7-1.6-3.7-3.7V-16.5C507.5-18.6,509.1-20.4,511.2-20.4z"/>
</g>
<g transform="matrix(1 0 0 1 -150.55 20.35)">
	<path vector-effect="non-scaling-stroke" class="st1" d="M479.9-20.4H492c7,0,12.6,5.7,12.6,12.6v39.8c2.5-2.8,6.3-5.6,11.2-8.3
		c4.9-2.7,11.2-4,18.9-4c6.1,0,11.6,1,16.5,2.9c4.8,2,8.8,4.8,12,8.4c3.2,3.6,5.7,8,7.3,13.1c1.7,5.1,2.5,10.7,2.5,16.8v57.3
		c0,1.9-1.5,3.5-3.5,3.5h-18.2c-1.9,0-3.5-1.5-3.5-3.5V61.2c0-6.4-1.7-11.3-5.2-14.8c-3.5-3.5-8-5.2-13.5-5.2
		c-3.4,0-6.6,0.7-9.6,2.1c-2.9,1.3-5.6,3.3-7.6,5.7c-2.2,2.4-3.8,5.2-5,8.4c-1.2,3.2-1.9,6.6-1.9,10.4v50.7c0,1.9-1.5,3.5-3.5,3.5
		h-18.2c-1.9,0-3.5-1.5-3.5-3.5V-3L479.9-20.4L479.9-20.4z"/>
</g>
<g transform="matrix(1 0 0 1 123.05 38.85)">
	<path vector-effect="non-scaling-stroke" class="st1" d="M508.8,3.3h15.8c2.3,0,4.1,1.7,4.3,4l0.4,7.3c1.3-1.4,2.8-2.9,4.6-4.5
		c1.7-1.5,3.9-3.1,6.4-4.4s5.3-2.4,8.4-3.3c3.2-0.9,6.6-1.3,10.7-1.3c12.5,0,22,3.7,28.6,11.2c6.5,7.4,9.8,17.5,9.8,30.2v56.2
		c0,2.5-2,4.5-4.5,4.5H577c-2.5,0-4.5-2-4.5-4.5v-56c0-6.4-1.7-11.3-5.2-14.8c-3.5-3.5-8.1-5.2-13.5-5.2c-3.4,0-6.6,0.7-9.6,2.1
		c-2.9,1.3-5.6,3.3-7.6,5.7c-2.2,2.4-3.8,5.2-5,8.4c-1.2,3.2-1.9,6.6-1.9,10.4V99c0,2.5-2,4.5-4.5,4.5H509c-2.5,0-4.5-2-4.5-4.5V7.8
		C504.5,5.3,506.4,3.3,508.8,3.3z"/>
</g>
<g transform="matrix(1 0 0 1 175.9 0)">
	<path vector-effect="non-scaling-stroke" class="st1" d="M562,48.8c0,1.1-0.3,2.2-0.9,3.2c-0.5,1-1.3,1.7-2.3,2.3
		c-1,0.5-2,0.9-3.1,0.9c-1.1,0-2.2-0.3-3.1-0.9c-1-0.5-1.7-1.3-2.3-2.3c-0.5-1-0.9-2-0.9-3.1s0.3-2.2,0.9-3.2c0.5-1,1.3-1.7,2.3-2.3
		c1-0.5,2-0.9,3.1-0.9c1.1,0,2.2,0.3,3.1,0.9c1,0.5,1.7,1.3,2.3,2.3C561.8,46.7,562,47.7,562,48.8z M561.3,48.8c0-1-0.2-1.9-0.8-2.6
		c-0.4-0.9-1.1-1.5-2-2c-0.9-0.4-1.7-0.8-2.6-0.8c-1,0-1.9,0.2-2.7,0.8c-0.9,0.4-1.5,1.1-2,2c-0.4,0.9-0.8,1.7-0.8,2.7
		c0,1,0.2,1.9,0.8,2.6c0.4,0.9,1.1,1.5,2,2c0.9,0.4,1.7,0.8,2.7,0.8s1.9-0.2,2.6-0.8c0.9-0.4,1.5-1.1,2-2S561.3,49.8,561.3,48.8z
		 M553.3,45.2h2.9c0.7,0,1.2,0.1,1.5,0.2c0.3,0.1,0.5,0.3,0.8,0.7c0.2,0.3,0.3,0.7,0.3,1.1c0,0.3-0.1,0.7-0.2,1
		c-0.1,0.2-0.3,0.4-0.7,0.7c0.3,0.1,0.5,0.3,0.7,0.5c0.1,0.2,0.2,0.5,0.2,1.1v0.8c0,0.3,0.1,0.7,0.2,1l0.1,0.2h-1.3
		c-0.1-0.3-0.1-0.7-0.2-1.1l-0.1-0.9c0-0.3-0.1-0.5-0.1-0.7c-0.1-0.1-0.2-0.2-0.3-0.3c-0.1-0.1-0.4-0.1-0.9-0.1h-1.9v2.9h-1.1
		C553.3,52.3,553.3,45.2,553.3,45.2z M554.4,46.3v2.1h1.7c0.5,0,0.9-0.1,1.1-0.2c0.3-0.2,0.4-0.4,0.4-0.9c0-0.3-0.1-0.7-0.3-0.8
		c-0.2-0.2-0.5-0.2-1.1-0.2L554.4,46.3L554.4,46.3z"/>
</g>
<g transform="matrix(1 0 0 1 39.47 38.6)">
	<path vector-effect="non-scaling-stroke" class="st1" d="M514.6,3.3h15.7c2.3,0,4.1,1.7,4.3,4l0.4,8.5c1.1-1.4,2.6-2.9,4.4-4.7
		c1.7-1.7,3.9-3.3,6.3-4.7s5.2-2.6,8.4-3.6s6.9-1.5,11-1.5c2.4,0,4.6,0.1,6.5,0.4c0.9,0.1,1.6,0.3,2.5,0.4c1.9,0.4,3.1,2.3,2.7,4.3
		L573.2,23c-0.4,2-2.4,3.2-4.4,2.7c-0.5-0.1-1.1-0.2-1.7-0.3c-1.7-0.3-3.9-0.4-6.3-0.4c-3.4,0-6.6,0.5-9.8,1.7
		c-3.2,1.1-5.8,2.7-8.1,4.9s-4,4.7-5.5,7.6c-1.3,2.9-2.1,6.3-2.1,10V99c0,2.3-1.9,4.3-4.3,4.3h-16.7c-2.3,0-4.3-1.9-4.3-4.3V7.6
		C510.2,5.2,512.2,3.3,514.6,3.3z"/>
</g>
<g id="u_1_" transform="matrix(1 0 0 1 -334.25 40.2)">
	<path vector-effect="non-scaling-stroke" class="st1" d="M537.4,3.6c-2.2,0-3.9,1.7-3.9,3.9v48.6c0,13.3-9.5,22.2-21.1,22.2
		c-2.2,0-3.7,0-4.6,0c-11.6,0-21.1-8.9-21.1-22.2V7.5c0-2.2-1.7-3.9-3.9-3.9h-15.5c-2.2,0-3.9,1.7-3.9,3.9v54
		c0,23.4,21.5,39.7,44.1,39.9l0,0h0.1c0.1,0,0.2,0,0.2,0l0,0h4.1l0,0c0.1,0,0.2,0,0.3,0h0.5l0,0c22.6-0.4,43.7-16.6,43.7-39.9v-54
		c0-2.2-1.7-3.9-3.9-3.9H537.4z"/>
</g>
<g transform="matrix(1 0 0 1 -49.2 40.15)">
	<path vector-effect="non-scaling-stroke" class="st1" d="M481.9,52.4c0-7.2,1.3-14.1,3.9-20.6c2.6-6.4,6.3-12.1,11-16.9
		c4.7-4.8,10.4-8.7,16.9-11.6c6.6-2.8,13.8-4.3,21.8-4.3c8,0,15.3,1.4,21.8,4.3c6.6,2.8,12.2,6.6,16.9,11.6
		c4.7,4.8,8.4,10.5,11,16.9s3.9,13.3,3.9,20.6c0,7.3-1.3,14.1-3.9,20.6c-2.6,6.4-6.3,12.1-11,17c-4.7,4.9-10.4,8.8-16.9,11.7
		c-6.6,2.8-13.8,4.3-21.8,4.3c-8,0-15.3-1.4-21.8-4.3c-6.6-2.8-12.2-6.8-16.9-11.7c-4.7-4.9-8.4-10.6-11-17
		C483.3,66.5,481.9,59.6,481.9,52.4z M535.7,84.1c4.8,0,9-1,12.5-2.8c3.6-2,6.5-4.5,8.8-7.5c2.4-3.2,4-6.5,5.2-10.2
		c1.1-3.7,1.7-7.4,1.7-11.1c0-3.6-0.5-7.2-1.7-11c-1.1-3.8-2.8-7.2-5.2-10.2s-5.3-5.6-8.8-7.4c-3.6-2-7.7-2.8-12.5-2.8
		c-4.8,0-9,1-12.5,2.8c-3.6,2-6.5,4.4-8.8,7.4c-2.4,3.1-4,6.4-5.2,10.2c-1.1,3.8-1.7,7.4-1.7,11c0,3.7,0.5,7.4,1.7,11.1
		c1.1,3.7,2.8,7.1,5.2,10.2s5.3,5.7,8.8,7.5C526.6,83.1,530.9,84.1,535.7,84.1z"/>
</g>
<g transform="matrix(1 0 0 1 373.18 92.99)">
	<path vector-effect="non-scaling-stroke" class="st2" d="M522,33.4c-1.8-2.2-4-4.3-4.4-7.8c-0.3-2.2-2.1-3.9-3.4-5.7
		c-0.8-1.1-0.9-1.6-2.9-4.7c-0.1-0.2-0.6-1-0.6-1.1c-0.4-0.9-1.2-1.5-2.2-1.6c-6.5-0.7-18-2.7-22.9-4.8c-0.5-0.2,1.8,2.6,2.1,3.2
		c0.1,0.3,0.3,0.5,0.4,0.7c3.3,4.9,7.7,7.8,11.5,9.4c1.7,0.7,3.4,1.3,5,1.9c2.5,1,4.5,2.7,5.6,5.5c0.5,1.2,1.4,2.2,2.5,2.9
		c1.8,1.1,2.9,2.8,3.4,4.8c0.1,0.2,0.2,0.4,0.2,0.6c6.3,11.2,3.1,8.7,4.6,13c0,0.1,0,0.1,0.1,0.1c0.3,1.4,0.9,1.4,1.8,1.7
		c1.1,0.3,2.1,0.3,3.2-0.1c0.3-0.1,0.5-0.4,0.5-0.7c-0.1-0.5-0.1-1,0.3-1.2c0.4-0.2,0.7-0.1,1,0.1c0.5,0.9,0.9,0.3,1.4,0.1
		c1.2-0.7,2.4-0.6,2.4-2.1c0-0.6-2.9-7.3-4.8-9.5C525.3,36.3,523.4,35.1,522,33.4z"/>
</g>
<g transform="matrix(1 0 0 1 335.25 -6.51)">
	<path vector-effect="non-scaling-stroke" class="st2" d="M610.7,90.6c-0.1-0.2-0.4-0.3-0.4-0.7c0.1-1.2-0.5-0.8-1-0.5
		c-1.6,1-3.5,1.4-4,4c-0.1,0.6-0.6,0.7-1.1,1c-4,2.4-8.4-0.4-9.5-6.2c-0.5-3-1.3-5.9-2.5-8.6c-0.6-1.4-2.5-3.4-3.4-4.9
		c-0.2-0.3-0.2-0.5-0.3-0.9c-0.1-1.6-0.7-5.2-5-7.7c-0.1,0-0.1-0.1-0.1-0.1c-5.2-3.8-16.6-7.8-22.7-9.6c-2.3-0.6-2.9,0.9-3,1.8
		c0,0.2,0,0.4,0.1,0.5c0.1,0.4,0.4,1.3,0.4,1.3c1.4,5.5,3.3,13.1,2.2,12.8c-1.1-0.3-4-16.2-10.6-20.8c-0.1-0.1-0.1-0.1-0.1-0.1
		c-4.3-4-13.3-5.9-16.4-6.5c-0.4-0.1-0.7-0.3-1-0.6c-1.8-2.4-4.6-3.1-8.9-3.8c-1.8-0.3-3.3-0.5-4.7-0.7c-1.1-0.1-1.8-1.2-1.4-2.2
		l0,0c0.2-0.4,0.2-1.3-0.2-1.4c-0.3-0.1-1.3,0.3-2.2,0.4c-0.6,0.1-1.2-0.3-1.3-0.3c-0.2-0.1,0.3,0.3,0.1,0.1
		c-2.5-2.4,3.7-4.6,2.4-4.7c-0.5-0.1-1-0.1-1.4-0.1c-1.9-0.1-3.6,0.1-5.1,0.3c-0.4,0.1-0.6-0.3-0.6-0.6c0-0.2,0.1-0.3,0.3-0.4
		c8.2-4.4,11.3-9.5,11.3-9.5s2.5-4.1-3.3-6.7c-1.1-0.5-2.5-1-4.3-1.3c-5-1.1-9.5-2.7-13-4.2c-1.2-0.5-2.3-1.1-3.3-1.5
		c-0.1,0-0.3-0.1-0.5-0.2c-0.5-0.2-1-0.1-1.3,0.6c-0.5,1.1,1.1,1.7,1.9,2.3c3.4,2.7,7.3,4.4,10.9,6.7c2.2,1.4,2.3,2.1,0.3,3.5
		c-3,2-6.4,3.3-9.8,4.6c-0.2,0.1-0.4,0.1-0.5,0.1c-1.8-1.2-3.6-1.4-5.2-1.1c-3,0.1-5.8,1.8-7.3,4.6c-0.3,0.6-1,0.9-1.6,0.9
		c-0.1,0-0.3,0-0.4,0c-0.2-0.1-0.5-0.1-0.6-0.1c-7.3,0.6-8.8,3.6-9.1,4.9c-0.1,0.4-0.3,0.7-0.7,0.9c-15.8,6.6-26.9,1.7-30.6-0.5
		c0,0-0.1-0.1-0.1-0.1c-0.5-0.3-1,0.2-0.9,0.7c3.5,8.9,21.6,9.6,26.7,9.6c0.2,0,0.4,0,0.6,0c0.4,0,0.7,0.4,0.5,0.7
		c-1.3,3.7-2.8,6.2-3.8,7.5c-0.5,0.6-0.9,1.4-1.1,2.2l-0.1,0.3c-0.4,1.4-0.4,2.8,0.1,4.2l0,0c0.1,0.3,0.1,0.7,0.1,1
		c-0.1,0.2-0.1,0.3-0.1,0.5c0,0-0.1,0.3,0,0.7c1,5.8,4.1,7,4.1,7s0.5,0.3,2.6,0.2c4.9-0.2,13.2-1.4,15.3-1.6c0.2,0,0.4,0,0.6,0.1
		l0.1,0.1c0.2,0.1,0.3,0.1,0.4,0.2c7.1,3.7,17.7,15.2,21.5,21.9c0.2,0.4,0.4,0.8,0.6,1.2c1.8,3.4,3.7,5.9,6.7,8.2
		c0.3,0.3,1.3,1,2.9,1.9c2,1.1,3.6,1.8,4.9,2.3c3.5,1.4,6.3,2.1,8.4,2.6c0.9,0.2,1.5,0.4,1.9,0.4c1.6,0.3,3.1,0.5,4.9,0.8
		c6.9,0.9,10.1,0.5,11.4,2.7c0.1,0.1,0.3,1,0.4,1.2c0,0.1,0,0.1,0.1,0.1c1.7,4.9,2.8,5.5,3.5,7.8c0.4,1.1,0.9,1.7,1.9,1.9
		c1.5,0.4,2.9,1.3,3.5,2.9c1.4,3.8,4.2,6.7,7.7,7.8c3.9,1.1,5.7,0.7,8.1-2.5c0.9-1.2,0.9-2.4,0.2-3.6c-1.4-2.5-3.5-3.7-6.1-4
		c-1.2-0.2-2.4-0.7-2.6-2c-0.3-2.1-1.3-3.3-2.6-4.6c-1.2-1.3-1-3.1,0.4-3.9c0.4-0.2,4.6-3.5,6.3-4.4c0.6-0.3,4.2-1.6,4.3-4.1
		c-0.5-6.1,0.5-10.4,0.9-10.3c0.3,0-0.2,2,0.6,5.8c0.1,0.2,0.1,0.4,0.2,0.5l0,0c0.7,4.4,5.9,11.2,8.5,14.1c0.1,0.2,0.2,0.3,0.3,0.5
		c0.5,1.3,1.2,2.6,2,3.8c0.3,0.5,0.7,1.3,0.8,1.9c0.8,4.9,3.2,9.2,3.6,14.1c0.2,1.9,0.6,4.2,0.4,5c-0.1,0.2-0.1,0.4-0.1,0.6
		c0.1,1.3,0.5,4.3,1.1,4.6c0.5,0.3,3.1,0.8,4.2-0.5c0.1-0.1,0.2-0.3,0.2-0.4c0.2-2.1,1.1-1.2,1.6-0.6c0.2,0.2,0.4,0.2,0.5,0.2
		c1.1-0.4,1.6-0.9,2.2-1.6c0.1-0.1,0.2-0.2,0.2-0.3c0.3-1.8,0.4-3.6-0.4-5.4c-0.7-1.5-1.7-2.9-2.7-4.2c-2.4-3.1-3.7-6.7-2.8-11.1
		c0.4-1.9,0-3.7-1.1-5.2c-0.7-1-0.9-2-0.5-3.4c0.8-4.2,1.1-8.5,0.6-12.7c-0.1-0.6-0.4-1.4,0.2-1.9c0.5-0.5,1.1-0.1,1.7,0.2
		c2.6,1.3,5,0.9,7.4-0.6c0.5-0.4,1.1-0.7,1.8-0.7c2.8,0,4.1-1.8,4.2-3C611.1,92.2,611.1,91.2,610.7,90.6z"/>
</g>
</svg>
